<?xml version="1.0" encoding="UTF-8"?>
<svg version="1.1" xmlns="http://www.w3.org/2000/svg" width="500" height="500">
<path d="M0 0 C10.72850439 9.22701706 10.72850439 9.22701706 12.14306641 13.47070312 C12.80306641 13.47070312 13.46306641 13.47070312 14.14306641 13.47070312 C14.50400391 14.12039062 14.86494141 14.77007812 15.23681641 15.43945312 C17.12384476 17.88509731 17.12384476 17.88509731 20.98681641 17.93945312 C22.53875009 17.96339084 24.09094994 17.97307857 25.64306641 17.97070312 C34.39026952 18.1884867 41.7335594 19.53103179 49.14306641 24.47070312 C49.14306641 25.13070312 49.14306641 25.79070312 49.14306641 26.47070312 C49.80306641 26.47070312 50.46306641 26.47070312 51.14306641 26.47070312 C55.28831268 33.04592135 58.50875136 39.55914114 57.93994141 47.50585938 C57.01652891 56.26739573 57.01652891 56.26739573 60.58056641 63.93945312 C62.51470253 65.93981376 64.57558752 67.71728069 66.73681641 69.46679688 C67.92791016 70.45873047 67.92791016 70.45873047 69.14306641 71.47070312 C69.14306641 72.13070312 69.14306641 72.79070312 69.14306641 73.47070312 C70.46306641 74.13070312 71.78306641 74.79070312 73.14306641 75.47070312 C73.14306641 76.13070312 73.14306641 76.79070312 73.14306641 77.47070312 C73.74119141 77.73882812 74.33931641 78.00695312 74.95556641 78.28320312 C77.14154494 79.46987719 78.55639234 80.56669425 80.14306641 82.47070312 C80.14306641 83.13070312 80.14306641 83.79070312 80.14306641 84.47070312 C80.80306641 84.47070312 81.46306641 84.47070312 82.14306641 84.47070312 C87.3661712 89.4111141 91.32327067 95.4303328 95.14306641 101.47070312 C95.63677734 102.18355469 96.13048828 102.89640625 96.63916016 103.63085938 C108.80094665 122.04727893 111.52833338 146.09245526 107.58837891 167.43212891 C103.41212292 186.55040606 92.86544957 205.59869951 77.14306641 217.47070312 C76.48306641 217.47070312 75.82306641 217.47070312 75.14306641 217.47070312 C75.14306641 218.13070312 75.14306641 218.79070312 75.14306641 219.47070312 C62.25268192 230.27478261 46.45596836 235.02752656 30.14306641 237.47070312 C29.26779297 237.65375 28.39251953 237.83679688 27.49072266 238.02539062 C17.62675448 239.89642619 7.77829301 237.57169067 -1.85693359 235.47070312 C-3.33033203 235.16326172 -3.33033203 235.16326172 -4.83349609 234.84960938 C-15.62362944 232.28735057 -27.39898602 226.69799695 -35.85693359 219.47070312 C-35.85693359 218.81070313 -35.85693359 218.15070313 -35.85693359 217.47070312 C-39.65789562 216.45666555 -41.81835886 216.52976782 -45.48193359 217.90820312 C-54.42951545 220.78895277 -63.23073604 220.21359562 -71.85693359 216.47070312 C-74.3811595 214.95073914 -76.55253189 213.32424363 -78.85693359 211.47070312 C-79.53755859 212.09976563 -80.21818359 212.72882813 -80.91943359 213.37695312 C-88.90109154 220.42458727 -97.15986951 225.14236158 -106.85693359 229.47070312 C-108.03771484 230.004375 -109.21849609 230.53804687 -110.43505859 231.08789062 C-131.29723359 239.51849559 -156.93795804 237.19209243 -177.29443359 228.78320312 C-179.82653856 227.701961 -182.34295119 226.59384092 -184.85693359 225.47070312 C-184.85693359 224.81070313 -184.85693359 224.15070313 -184.85693359 223.47070312 C-185.42927734 223.35597656 -186.00162109 223.24125 -186.59130859 223.12304688 C-189.07165015 222.40887956 -190.92062056 221.3976244 -193.10693359 220.03320312 C-193.81333984 219.60136719 -194.51974609 219.16953125 -195.24755859 218.72460938 C-195.77865234 218.31082031 -196.30974609 217.89703125 -196.85693359 217.47070312 C-196.85693359 216.81070313 -196.85693359 216.15070313 -196.85693359 215.47070312 C-197.41380859 215.24382812 -197.97068359 215.01695312 -198.54443359 214.78320312 C-201.50134981 213.10495338 -203.56926467 210.93745725 -205.85693359 208.47070312 C-206.90107422 207.38208984 -206.90107422 207.38208984 -207.96630859 206.27148438 C-216.32438046 197.33844448 -221.67839524 187.9442148 -225.85693359 176.47070312 C-226.25267578 175.44332031 -226.64841797 174.4159375 -227.05615234 173.35742188 C-232.65493701 156.32532959 -232.10326998 135.21752527 -225.85693359 118.47070312 C-225.54111328 117.42011719 -225.22529297 116.36953125 -224.89990234 115.28710938 C-219.80040841 99.68303992 -208.17636096 86.04334601 -195.85693359 75.47070312 C-195.19693359 75.47070312 -194.53693359 75.47070312 -193.85693359 75.47070312 C-193.85693359 74.81070313 -193.85693359 74.15070313 -193.85693359 73.47070312 C-193.19693359 73.47070312 -192.53693359 73.47070312 -191.85693359 73.47070312 C-191.85693359 72.81070313 -191.85693359 72.15070313 -191.85693359 71.47070312 C-190.31787109 69.95507813 -190.31787109 69.95507813 -188.23193359 68.22070312 C-185.516456 65.9241024 -182.94431096 63.59919538 -180.48193359 61.03320312 C-177.85693359 58.47070312 -177.85693359 58.47070312 -175.85693359 58.47070312 C-175.85693359 57.81070313 -175.85693359 57.15070313 -175.85693359 56.47070312 C-175.19693359 56.47070312 -174.53693359 56.47070312 -173.85693359 56.47070312 C-173.85693359 55.81070313 -173.85693359 55.15070313 -173.85693359 54.47070312 C-173.19693359 54.47070312 -172.53693359 54.47070312 -171.85693359 54.47070312 C-171.85693359 53.81070313 -171.85693359 53.15070313 -171.85693359 52.47070312 C-170.35302734 50.99023438 -170.35302734 50.99023438 -168.29443359 49.28320312 C-165.53154679 46.93790554 -162.89013603 44.56240908 -160.35693359 41.97070312 C-158.00660259 39.57792822 -155.59270959 37.33879201 -153.04443359 35.15820312 C-148.76164611 31.48724243 -144.86866289 27.47359842 -140.95849609 23.41210938 C-138.85693359 21.47070312 -138.85693359 21.47070312 -136.85693359 21.47070312 C-136.60298828 20.87902344 -136.34904297 20.28734375 -136.08740234 19.67773438 C-134.72140147 17.22760582 -133.32757149 15.93474493 -131.16943359 14.15820312 C-128.35277119 11.78116498 -125.68529124 9.35474884 -123.10693359 6.72070312 C-120.82367267 4.4062359 -118.62419362 2.21305203 -115.85693359 0.47070312 C-115.19693359 0.47070312 -114.53693359 0.47070312 -113.85693359 0.47070312 C-113.85693359 -0.18929687 -113.85693359 -0.84929687 -113.85693359 -1.52929688 C-77.65785893 -22.93479438 -34.52268236 -28.43151227 0 0 Z M-95.04443359 34.34570312 C-97.07324913 36.25881646 -97.07324913 36.25881646 -96.85693359 38.47070312 C-97.51693359 38.47070312 -98.17693359 38.47070312 -98.85693359 38.47070312 C-100.48200555 41.30381932 -100.48200555 41.30381932 -101.85693359 44.47070312 C-101.36193359 45.95570313 -101.36193359 45.95570313 -100.85693359 47.47070312 C-100.19693359 47.47070312 -99.53693359 47.47070312 -98.85693359 47.47070312 C-98.16273796 49.1260927 -97.50589595 50.79706336 -96.85693359 52.47070312 C-96.59267578 53.06753906 -96.32841797 53.664375 -96.05615234 54.27929688 C-92.564919 63.03219944 -92.31711227 73.28962907 -95.54443359 82.15820312 C-97.29460823 85.92829258 -99.24885223 88.26576452 -102.85693359 90.47070312 C-101.65793661 93.55383823 -100.37992882 96.53349805 -98.85693359 99.47070312 C-98.19693359 99.47070312 -97.53693359 99.47070312 -96.85693359 99.47070312 C-96.49535156 100.30794922 -96.49535156 100.30794922 -96.12646484 101.16210938 C-94.58806781 103.95962522 -92.70131395 106.05557228 -90.54443359 108.40820312 C-89.73619141 109.28992188 -88.92794922 110.17164063 -88.09521484 111.08007812 C-85.73430507 113.60167809 -83.33189368 116.06087357 -80.85693359 118.47070312 C-79.60393521 119.69681313 -78.35411151 120.92617312 -77.10693359 122.15820312 C-76.51396484 122.73957031 -75.92099609 123.3209375 -75.31005859 123.91992188 C-73.85693359 125.47070312 -73.85693359 125.47070312 -72.85693359 127.47070312 C-72.19693359 127.47070312 -71.53693359 127.47070312 -70.85693359 127.47070312 C-70.85693359 128.46070313 -70.85693359 129.45070313 -70.85693359 130.47070312 C-72.34193359 130.96570313 -72.34193359 130.96570313 -73.85693359 131.47070312 C-73.85693359 132.13070312 -73.85693359 132.79070312 -73.85693359 133.47070312 C-75.83693359 134.46070313 -75.83693359 134.46070313 -77.85693359 135.47070312 C-77.85693359 136.13070312 -77.85693359 136.79070312 -77.85693359 137.47070312 C-78.41509766 137.70015625 -78.97326172 137.92960937 -79.54833984 138.16601562 C-82.48288967 139.82445834 -84.45833712 141.91961835 -86.79443359 144.34570312 C-93.19303766 150.97176916 -93.19303766 150.97176916 -96.85693359 153.47070312 C-97.84693359 153.14070312 -98.83693359 152.81070313 -99.85693359 152.47070312 C-100.18693359 151.81070313 -100.51693359 151.15070313 -100.85693359 150.47070312 C-101.51693359 150.47070312 -102.17693359 150.47070312 -102.85693359 150.47070312 C-102.85693359 149.81070313 -102.85693359 149.15070313 -102.85693359 148.47070312 C-104.34960081 146.99634134 -104.34960081 146.99634134 -106.23193359 145.53320312 C-108.69594883 143.55083696 -110.06159796 142.16370658 -111.85693359 139.47070312 C-112.51693359 139.47070312 -113.17693359 139.47070312 -113.85693359 139.47070312 C-113.85693359 138.81070313 -113.85693359 138.15070313 -113.85693359 137.47070312 C-114.51693359 137.47070312 -115.17693359 137.47070312 -115.85693359 137.47070312 C-116.25912109 136.59671875 -116.25912109 136.59671875 -116.66943359 135.70507812 C-117.8717435 133.44283712 -119.19519272 131.66493995 -120.85693359 129.72070312 C-121.37255859 129.10710937 -121.88818359 128.49351562 -122.41943359 127.86132812 C-123.76316611 126.23893936 -123.76316611 126.23893936 -125.85693359 126.47070312 C-126.10701172 125.93960938 -126.35708984 125.40851563 -126.61474609 124.86132812 C-128.16604307 121.8758132 -129.9427271 119.06993007 -131.73193359 116.22070312 C-134.72422965 111.41909606 -137.4472852 106.59120596 -139.85693359 101.47070312 C-140.76314453 101.52871094 -141.66935547 101.58671875 -142.60302734 101.64648438 C-150.76495538 101.94877801 -156.21932977 101.3874467 -162.85693359 96.47070312 C-162.85693359 97.13070312 -162.85693359 97.79070312 -162.85693359 98.47070312 C-163.43701172 98.72207031 -164.01708984 98.9734375 -164.61474609 99.23242188 C-167.13659382 100.62514963 -168.74837438 102.20006765 -170.73193359 104.28320312 C-173.06607186 106.69931667 -175.22712827 108.75023788 -177.91943359 110.78320312 C-187.91509575 119.92817063 -192.29844006 132.74446929 -192.89208984 145.97851562 C-192.76271039 158.83020789 -188.42431301 170.11420386 -180.85693359 180.47070312 C-180.19693359 180.47070312 -179.53693359 180.47070312 -178.85693359 180.47070312 C-178.58494141 181.07140625 -178.31294922 181.67210937 -178.03271484 182.29101562 C-173.36895071 190.93679764 -161.90962579 195.04824248 -153.04443359 197.84570312 C-139.40393917 200.52814345 -128.37597596 197.67664153 -115.85693359 192.47070312 C-115.85693359 191.81070313 -115.85693359 191.15070313 -115.85693359 190.47070312 C-115.28845703 190.38433594 -114.71998047 190.29796875 -114.13427734 190.20898438 C-111.1932304 189.25554034 -109.6759248 187.77009625 -107.41943359 185.65820312 C-106.54673828 184.84867188 -105.67404297 184.03914062 -104.77490234 183.20507812 C-103.81197266 182.30273438 -102.84904297 181.40039062 -101.85693359 180.47070312 C-100.7710381 179.47444445 -99.68375468 178.47969683 -98.59521484 177.48632812 C-93.0458122 172.41309587 -87.5738569 167.3042662 -82.34521484 161.89648438 C-80.85693359 160.47070312 -80.85693359 160.47070312 -78.85693359 159.47070312 C-78.85693359 158.81070313 -78.85693359 158.15070313 -78.85693359 157.47070312 C-78.19693359 157.47070312 -77.53693359 157.47070312 -76.85693359 157.47070312 C-76.85693359 156.81070313 -76.85693359 156.15070313 -76.85693359 155.47070312 C-76.19693359 155.47070312 -75.53693359 155.47070312 -74.85693359 155.47070312 C-74.85693359 154.81070313 -74.85693359 154.15070313 -74.85693359 153.47070312 C-74.28458984 153.22707031 -73.71224609 152.9834375 -73.12255859 152.73242188 C-70.45259821 151.24553014 -68.71864353 149.48986404 -66.60693359 147.28320312 C-63.73760978 144.34332217 -60.84976965 141.52073367 -57.73193359 138.84570312 C-53.91356367 135.56630788 -50.37118905 132.07109229 -46.85693359 128.47070312 C-42.2530792 123.75978235 -42.2530792 123.75978235 -39.54443359 121.78320312 C-38.98755859 121.35007812 -38.43068359 120.91695313 -37.85693359 120.47070312 C-37.85693359 119.81070313 -37.85693359 119.15070313 -37.85693359 118.47070312 C-37.26364258 118.20193359 -36.67035156 117.93316406 -36.05908203 117.65625 C-33.85153326 116.46779581 -32.39150478 115.26327923 -30.62255859 113.50195312 C-29.76210938 112.64537109 -29.76210938 112.64537109 -28.88427734 111.77148438 C-28.00449219 110.88009766 -28.00449219 110.88009766 -27.10693359 109.97070312 C-26.50494141 109.37644531 -25.90294922 108.7821875 -25.28271484 108.16992188 C-24.43 107.31333984 -24.43 107.31333984 -23.56005859 106.43945312 C-22.78130371 105.65731445 -22.78130371 105.65731445 -21.98681641 104.859375 C-20.64655812 103.51052044 -20.64655812 103.51052044 -20.85693359 101.47070312 C-20.19693359 101.47070312 -19.53693359 101.47070312 -18.85693359 101.47070312 C-17.72143592 99.30900702 -16.59864388 97.14208423 -15.48193359 94.97070312 C-15.16482422 94.37 -14.84771484 93.76929688 -14.52099609 93.15039062 C-10.89404424 86.04760991 -9.46435593 79.23663516 -9.48193359 71.28320312 C-9.48281982 70.54996826 -9.48370605 69.8167334 -9.48461914 69.0612793 C-9.6842342 59.73611484 -12.60355481 51.69715207 -16.85693359 43.47070312 C-17.51693359 43.47070312 -18.17693359 43.47070312 -18.85693359 43.47070312 C-19.84693359 40.99570313 -19.84693359 40.99570313 -20.85693359 38.47070312 C-21.51693359 38.47070312 -22.17693359 38.47070312 -22.85693359 38.47070312 C-23.25912109 37.57351562 -23.25912109 37.57351562 -23.66943359 36.65820312 C-24.85610766 34.47222459 -25.95292472 33.05737719 -27.85693359 31.47070312 C-28.51693359 31.47070312 -29.17693359 31.47070312 -29.85693359 31.47070312 C-29.85693359 30.81070313 -29.85693359 30.15070313 -29.85693359 29.47070312 C-32.04070125 28.33793044 -34.22850487 27.21447524 -36.41943359 26.09570312 C-37.02851563 25.77859375 -37.63759766 25.46148437 -38.26513672 25.13476562 C-58.02208096 15.09949236 -79.36967214 19.46796344 -95.04443359 34.34570312 Z M36.14306641 92.47070312 C36.14306641 93.13070312 36.14306641 93.79070312 36.14306641 94.47070312 C35.45599609 94.67566406 34.76892578 94.880625 34.06103516 95.09179688 C33.15998047 95.36121094 32.25892578 95.630625 31.33056641 95.90820312 C30.43724609 96.17503906 29.54392578 96.441875 28.62353516 96.71679688 C26.78833586 97.27458186 24.96272915 97.86414888 23.14306641 98.47070312 C21.9834166 101.01646522 21.9834166 101.01646522 21.01806641 104.15820312 C16.35290907 116.8965968 8.15383704 129.24764684 -2.62255859 137.61914062 C-3.72857422 138.53566406 -3.72857422 138.53566406 -4.85693359 139.47070312 C-4.85693359 140.13070312 -4.85693359 140.79070312 -4.85693359 141.47070312 C-5.51693359 141.47070312 -6.17693359 141.47070312 -6.85693359 141.47070312 C-8.58544309 143.09753559 -10.21693715 144.75745622 -11.85693359 146.47070312 C-13.2917691 147.91086269 -14.7293871 149.34825414 -16.16943359 150.78320312 C-16.86681641 151.48058594 -17.56419922 152.17796875 -18.28271484 152.89648438 C-19.06195313 153.67572266 -19.06195313 153.67572266 -19.85693359 154.47070312 C-18.86693359 154.80070312 -17.87693359 155.13070312 -16.85693359 155.47070312 C-15.85693359 157.22070312 -15.85693359 157.22070312 -14.85693359 159.47070312 C-14.11443359 160.61539063 -14.11443359 160.61539063 -13.35693359 161.78320312 C-10.22308737 167.39801094 -9.59876824 172.8047451 -9.66943359 179.15820312 C-9.67910156 181.08212891 -9.67910156 181.08212891 -9.68896484 183.04492188 C-9.82090629 185.7359136 -10.05097389 187.92387046 -10.85693359 190.47070312 C-10.19693359 190.47070312 -9.53693359 190.47070312 -8.85693359 190.47070312 C-8.85693359 191.13070312 -8.85693359 191.79070312 -8.85693359 192.47070312 C5.68932778 199.52209202 18.42069954 203.5438638 34.56103516 198.43945312 C46.01952803 194.14035141 56.87808288 187.31982093 63.14306641 176.47070312 C63.14306641 175.81070313 63.14306641 175.15070313 63.14306641 174.47070312 C63.80306641 174.47070312 64.46306641 174.47070312 65.14306641 174.47070312 C71.36380875 158.8584517 73.62639066 143.66287067 66.86572266 127.67773438 C63.66441619 121.71793254 59.49011228 116.63961236 55.14306641 111.47070312 C54.72041504 110.94798828 54.29776367 110.42527344 53.86230469 109.88671875 C51.44076809 106.90550927 48.97517378 104.29256452 46.01806641 101.84570312 C43.87087089 100.06612085 42.17707018 98.51719138 40.52587891 96.25976562 C39.84138672 95.37417969 39.84138672 95.37417969 39.14306641 94.47070312 C38.48306641 94.47070312 37.82306641 94.47070312 37.14306641 94.47070312 C36.64806641 93.48070312 36.64806641 93.48070312 36.14306641 92.47070312 Z " fill="#C76E2A" transform="translate(307.85693359375,131.529296875)"/>
<path d="M0 0 C11.37417308 -0.48003544 21.1555096 -0.5629936 31 6 C31 6.66 31 7.32 31 8 C31.66 8 32.32 8 33 8 C38.95930111 17.45268452 41.1700871 26.78539897 40 38 C38.98046875 40.3828125 38.98046875 40.3828125 38 42 C31.42002696 35.55431212 25.22050394 28.92876567 19.375 21.8125 C16.18958771 18.04030123 12.67343407 14.65687422 9.140625 11.2109375 C8.17705864 10.26565017 7.2135171 9.32033754 6.25 8.375 C5.75628906 7.89804688 5.26257813 7.42109375 4.75390625 6.9296875 C2.41612917 4.62393476 1.0546906 3.16407181 0 0 Z " fill="#F8F5F2" transform="translate(326,150)"/>
<path d="M0 0 C2.94980958 0.1858523 4.52597225 0.57284241 6.73828125 2.56640625 C7.51751953 3.55447266 7.51751953 3.55447266 8.3125 4.5625 C11.47814108 8.43239163 14.87769452 11.88918909 18.49609375 15.3359375 C20 17 20 17 20 19 C20.99 19.33 21.98 19.66 23 20 C22.505 21.485 22.505 21.485 22 23 C13.84269397 27.07865301 4.32331148 27.10639834 -4.3125 24.75 C-8.41865488 23.3638458 -11.64688747 21.75127182 -15 19 C-15.33 18.01 -15.66 17.02 -16 16 C-14.1875 13.3125 -14.1875 13.3125 -12 11 C-11.34 11 -10.68 11 -10 11 C-10 10.34 -10 9.68 -10 9 C-8.3203125 7.34375 -8.3203125 7.34375 -6.125 5.5 C-4.00964496 3.71066742 -1.95980876 1.95980876 0 0 Z " fill="#F7F3EE" transform="translate(245,325)"/>
<path d="M0 0 C0.66 0.33 1.32 0.66 2 1 C2 1.66 2 2.32 2 3 C2.61359375 3.60199219 3.2271875 4.20398438 3.859375 4.82421875 C9.30720317 10.36151855 10.28785006 18.07663789 10.5 25.5625 C10.27090348 33.32018209 9.14497478 40.00478592 3.375 45.5 C2.59125 45.995 1.8075 46.49 1 47 C0.34 47.66 -0.32 48.32 -1 49 C-6.82013539 33.36877923 -8.41133539 20.00493944 -2 4 C-1.35477795 2.65615822 -0.69662063 1.31793092 0 0 Z " fill="#F8F6F4" transform="translate(205,175)"/>
<path d="M0 0 C2.90896577 1.28702598 3.87100697 2.50022928 5.5625 5.17578125 C6.05105469 5.92085938 6.53960937 6.6659375 7.04296875 7.43359375 C9.92518981 13.09660873 10.66837972 18.43496392 10.6875 24.73828125 C10.70425781 26.02089844 10.72101563 27.30351562 10.73828125 28.625 C10.36300274 32.16391668 9.79822239 33.52525924 7.375 36.05078125 C-0.60307473 29.26093042 -7.91611542 22.10144275 -14.625 14.05078125 C-13.03623661 10.26082612 -10.65110453 7.67902448 -7.8125 4.73828125 C-6.96042969 3.83464844 -6.10835938 2.93101562 -5.23046875 2 C-2.625 0.05078125 -2.625 0.05078125 0 0 Z " fill="#F7F5F2" transform="translate(288.625,285.94921875)"/>
<path d="M0 0 C0.99 0 1.98 0 3 0 C3.10957031 0.65484375 3.21914062 1.3096875 3.33203125 1.984375 C4.56522732 9.08277187 6.17574825 16.0313583 8 23 C-7.74487472 23.92255125 -7.74487472 23.92255125 -15 18 C-14.42100425 14.56362264 -13.31469072 12.95421873 -10.8125 10.5625 C-10.18730469 9.96179688 -9.56210938 9.36109375 -8.91796875 8.7421875 C-7.18947392 7.17210869 -5.43175583 5.66615247 -3.625 4.1875 C-0.9683878 2.2707913 -0.9683878 2.2707913 0 0 Z " fill="#F9F5F0" transform="translate(161,211)"/>
<path d="M0 0 C2.97211835 0.26253712 4.59065461 0.63661924 6.84375 2.63671875 C7.3903125 3.31347656 7.936875 3.99023438 8.5 4.6875 C9.08910156 5.40292969 9.67820313 6.11835938 10.28515625 6.85546875 C11.13400391 7.91701172 11.13400391 7.91701172 12 9 C12.97724078 10.16828033 13.95615056 11.33516879 14.9375 12.5 C15.618125 13.325 16.29875 14.15 17 15 C16.01 15 15.02 15 14 15 C13.56300781 14.5153125 13.12601562 14.030625 12.67578125 13.53125 C10.27541799 11.33791108 8.39009622 11.59668215 5.1875 11.5 C0.29224895 11.22111903 -2.88433337 10.62945368 -7 8 C-6.02133662 6.85373678 -5.04205413 5.70800212 -4.0625 4.5625 C-3.51722656 3.92441406 -2.97195312 3.28632813 -2.41015625 2.62890625 C-1.63204305 1.73008851 -0.84063472 0.84063472 0 0 Z " fill="#EAD9CB" transform="translate(245,325)"/>
<path d="M0 0 C0.65625 1.84765625 0.65625 1.84765625 1 4 C0.175 4.804375 -0.65 5.60875 -1.5 6.4375 C-2.325 7.283125 -3.15 8.12875 -4 9 C-3.85125183 11.66303039 -3.85125183 11.66303039 -3 14 C-3.33 14.66 -3.66 15.32 -4 16 C-3.34 16 -2.68 16 -2 16 C-1.67 15.34 -1.34 14.68 -1 14 C-1 14.99 -1 15.98 -1 17 C-0.01 17.33 0.98 17.66 2 18 C2.33 17.34 2.66 16.68 3 16 C3.33 17.65 3.66 19.3 4 21 C3.34 21 2.68 21 2 21 C2 21.66 2 22.32 2 23 C2.66 23 3.32 23 4 23 C4 23.66 4 24.32 4 25 C4.598125 25.0825 5.19625 25.165 5.8125 25.25 C8.62932273 26.21576779 9.47799132 27.48868567 11 30 C11 30.66 11 31.32 11 32 C11.66 32 12.32 32 13 32 C12.67 32.66 12.34 33.32 12 34 C4.02192527 27.21014917 -3.29111542 20.0506615 -10 12 C-8.52278578 8.54798361 -6.56205999 6.35038064 -3.875 3.75 C-3.15054687 3.04359375 -2.42609375 2.3371875 -1.6796875 1.609375 C-1.12539063 1.07828125 -0.57109375 0.5471875 0 0 Z " fill="#F0DED0" transform="translate(284,288)"/>
<path d="M0 0 C2 0 2 0 3.69140625 1.57421875 C4.61759766 2.62029297 4.61759766 2.62029297 5.5625 3.6875 C6.18253906 4.37199219 6.80257813 5.05648437 7.44140625 5.76171875 C9.15146863 8.21752262 9.6237708 10.05716611 10 13 C5.33121544 15.1476409 2.2627046 16.12288257 -3 17 C-2.01 11.39 -1.02 5.78 0 0 Z " fill="#F9EEE4" transform="translate(334,213)"/>
<path d="M0 0 C7.5072385 7.5072385 8.01040619 24.32963605 8.25 34.4375 C7.85918445 53.14081555 7.85918445 53.14081555 4 57 C4.0721875 56.27039063 4.144375 55.54078125 4.21875 54.7890625 C5.33147485 42.27090798 5.84696002 29.4669801 4 17 C3.34 17 2.68 17 2 17 C0.84429296 13.53287889 0.67164707 10.4585044 0.4375 6.8125 C0.35371094 5.54019531 0.26992188 4.26789063 0.18359375 2.95703125 C0.12300781 1.98121094 0.06242187 1.00539062 0 0 Z " fill="#D4A57F" transform="translate(409,246)"/>
<path d="M0 0 C-2.09638945 4.19277889 -6.90311514 5.37312959 -11.0625 6.9375 C-14.81741678 8.3980563 -17.55129418 9.66085571 -20 13 C-20 13.66 -20 14.32 -20 15 C-23.02734375 15.24414062 -23.02734375 15.24414062 -26.0546875 15.48828125 C-28.39519216 15.87393036 -28.39519216 15.87393036 -30 19 C-31.32 18.67 -32.64 18.34 -34 18 C-28.25 13 -28.25 13 -26 13 C-26 12.34 -26 11.68 -26 11 C-23.50402309 9.55512016 -21.00359387 8.11907628 -18.5 6.6875 C-17.45585937 6.08131836 -17.45585937 6.08131836 -16.390625 5.46289062 C-3.61931818 -1.80965909 -3.61931818 -1.80965909 0 0 Z " fill="#C88958" transform="translate(220,119)"/>
<path d="M0 0 C0.82540283 -0.00064453 1.65080566 -0.00128906 2.5012207 -0.00195312 C9.05806058 0.05433425 15.34106219 0.7547634 21.75 2.1875 C21.75 2.5175 21.75 2.8475 21.75 3.1875 C20.69087402 3.18226318 19.63174805 3.17702637 18.54052734 3.17163086 C14.59327039 3.15346594 10.6460171 3.14202611 6.69873047 3.13256836 C4.99364601 3.12755436 3.28856582 3.1207415 1.58349609 3.11206055 C-0.87403419 3.09986615 -3.33150738 3.09424225 -5.7890625 3.08984375 C-6.54555084 3.08468246 -7.30203918 3.07952118 -8.08145142 3.07420349 C-12.24682563 3.0737667 -16.16432259 3.37092962 -20.25 4.1875 C-20.25 5.1775 -20.25 6.1675 -20.25 7.1875 C-23.88 6.8575 -27.51 6.5275 -31.25 6.1875 C-28.3616738 4.2619492 -26.367892 3.51545116 -23.0625 2.625 C-22.16144531 2.37621094 -21.26039063 2.12742187 -20.33203125 1.87109375 C-13.55439064 0.36781478 -6.9160177 -0.00563366 0 0 Z " fill="#D29E6E" transform="translate(251.25,111.8125)"/>
<path d="M0 0 C0.99 0 1.98 0 3 0 C5.11161731 11.52164009 5.11161731 11.52164009 6 17 C5.34 16.34 4.68 15.68 4 15 C4 14.01 4 13.02 4 12 C3.34 12 2.68 12 2 12 C1.67 12.66 1.34 13.32 1 14 C0.67 13.01 0.34 12.02 0 11 C-2.01508358 10.26676204 -2.01508358 10.26676204 -4 10 C-4 9.34 -4 8.68 -4 8 C-4.66 8 -5.32 8 -6 8 C-6 8.99 -6 9.98 -6 11 C-7.65 11.33 -9.3 11.66 -11 12 C-8.82824569 9.07648458 -6.6341397 6.59700829 -3.8125 4.3125 C-0.98352767 2.30609749 -0.98352767 2.30609749 0 0 Z " fill="#ECDACC" transform="translate(161,211)"/>
<path d="M0 0 C-0.0825 0.845625 -0.165 1.69125 -0.25 2.5625 C0.07525766 7.03479289 1.6642516 9.20440885 4 13 C4 13.66 4 14.32 4 15 C4.99 15.33 5.98 15.66 7 16 C6.83701416 16.70664795 6.67402832 17.4132959 6.50610352 18.14135742 C5.98646586 21.07644539 5.88641651 23.75988693 5.90234375 26.73828125 C5.90556641 27.80498047 5.90878906 28.87167969 5.91210938 29.97070312 C5.92048828 31.07349609 5.92886719 32.17628906 5.9375 33.3125 C5.94201172 34.43462891 5.94652344 35.55675781 5.95117188 36.71289062 C5.96292687 39.4753151 5.97935923 42.23762998 6 45 C5.34 45 4.68 45 4 45 C4.02094727 44.43192627 4.04189453 43.86385254 4.06347656 43.27856445 C4.80750562 24.828017 4.80750562 24.828017 -2 8 C-2 7.01 -2 6.02 -2 5 C-2.66 5 -3.32 5 -4 5 C-4.66 3.35 -5.32 1.7 -6 0 C-3 -1 -3 -1 0 0 Z " fill="#CC8F60" transform="translate(293,170)"/>
<path d="M0 0 C3.63 0 7.26 0 11 0 C11 0.33 11 0.66 11 1 C22.22 1.33 33.44 1.66 45 2 C45 2.33 45 2.66 45 3 C30.72012662 5.54268016 19.04702529 4.94042937 5 2 C3.33358614 1.66540509 1.66703697 1.33147646 0 1 C0 0.67 0 0.34 0 0 Z " fill="#CB9163" transform="translate(301,365)"/>
<path d="M0 0 C0.66 0.33 1.32 0.66 2 1 C-4.35294118 11.11764706 -4.35294118 11.11764706 -10 13 C-11.26669114 14.4615667 -12.52962553 15.92758775 -13.73828125 17.4375 C-16.27700457 20.58142981 -18.13260922 22.71086974 -22 24 C-21.67 24.66 -21.34 25.32 -21 26 C-22.65 26 -24.3 26 -26 26 C-24.38405168 23.95880212 -22.7143618 21.95927063 -21 20 C-20.34 20 -19.68 20 -19 20 C-19 19.34 -19 18.68 -19 18 C-18.34 18 -17.68 18 -17 18 C-17 17.34 -17 16.68 -17 16 C-16.34 16 -15.68 16 -15 16 C-15 15.34 -15 14.68 -15 14 C-13.49609375 12.51953125 -13.49609375 12.51953125 -11.4375 10.8125 C-7.41324753 7.39798275 -3.67809995 3.78154651 0 0 Z " fill="#C58756" transform="translate(151,170)"/>
<path d="M0 0 C0.66 0.33 1.32 0.66 2 1 C1.25 5.75 1.25 5.75 -1 8 C-2.8168004 13.79343344 -3.26107727 18.96026251 -3.125 25 C-3.11597656 25.77472656 -3.10695312 26.54945313 -3.09765625 27.34765625 C-3.07439388 29.23190843 -3.0385364 31.11599832 -3 33 C-2.34 33 -1.68 33 -1 33 C-1.66 35.64 -2.32 38.28 -3 41 C-7.44526633 32.70216952 -7.13578186 22.23751542 -5.17578125 13.19921875 C-3.77717514 8.60825518 -2.24532138 4.24790532 0 0 Z " fill="#F3DAC4" transform="translate(205,175)"/>
<path d="M0 0 C1.93786085 0.47770523 3.87527674 0.95721571 5.8125 1.4375 C7.43091797 1.83775391 7.43091797 1.83775391 9.08203125 2.24609375 C11.0740843 2.76077412 13.04811524 3.34937175 15 4 C17.5570924 4.14940315 20.06710514 4.2379663 22.625 4.25 C23.70044067 4.25592163 23.70044067 4.25592163 24.79760742 4.26196289 C30.40615547 4.20045592 34.75905649 3.04307967 40 1 C40.99 1.33 41.98 1.66 43 2 C41.69530938 4.60938124 40.70356767 4.95350378 38 6 C33.63651092 6.43204763 29.25762342 6.32418077 24.875 6.3125 C23.6890625 6.32861328 22.503125 6.34472656 21.28125 6.36132812 C14.37382515 6.36514017 7.26597353 6.27086882 1 3 C0.67 2.01 0.34 1.02 0 0 Z " fill="#C58858" transform="translate(144,325)"/>
<path d="M0 0 C1.32 0.33 2.64 0.66 4 1 C4 1.66 4 2.32 4 3 C4.66 3 5.32 3 6 3 C6 4.32 6 5.64 6 7 C7.32 7 8.64 7 10 7 C10.33 6.34 10.66 5.68 11 5 C13.62386487 8.06117568 14 8.73173127 14 13 C14.99 13 15.98 13 17 13 C17 13.66 17 14.32 17 15 C17.66 15.33 18.32 15.66 19 16 C19 16.66 19 17.32 19 18 C17 17 15 16 13 15 C13 14.34 13 13.68 13 13 C12.443125 12.773125 11.88625 12.54625 11.3125 12.3125 C8.34746553 10.6296426 6.34646311 8.46378626 4 6 C3.236875 5.278125 2.47375 4.55625 1.6875 3.8125 C0 2 0 2 0 0 Z " fill="#CC8C59" transform="translate(98,334)"/>
<path d="M0 0 C1.6026213 3.2052426 0.04134314 5.70241339 -1 9 C-1.33 9.99 -1.66 10.98 -2 12 C-2.03954234 14.33299825 -2.04401732 16.66708189 -2 19 C-2.639375 19.28875 -3.27875 19.5775 -3.9375 19.875 C-6.15206079 20.82823451 -6.15206079 20.82823451 -7 23 C-7.66 23 -8.32 23 -9 23 C-7.49598475 14.65955179 -4.72332141 7.08498212 0 0 Z " fill="#C46F2D" transform="translate(90,233)"/>
<path d="M0 0 C0.66 0.33 1.32 0.66 2 1 C1.68417969 1.85335938 1.36835937 2.70671875 1.04296875 3.5859375 C-1.850389 13.0570786 -1.15711846 23.2802049 0 33 C-4.37545906 28.62454094 -4.16250936 22.87437149 -4.25 17 C-4.18524103 11.93800688 -3.79944079 7.72353208 -2 3 C-1.34 3 -0.68 3 0 3 C0 2.01 0 1.02 0 0 Z " fill="#CE9261" transform="translate(117,260)"/>
<path d="M0 0 C4.20434698 1.85773471 6.19873348 5.43296906 8.6875 9.1875 C6.3775 9.1875 4.0675 9.1875 1.6875 9.1875 C1.6875 8.5275 1.6875 7.8675 1.6875 7.1875 C0.0375 6.8575 -1.6125 6.5275 -3.3125 6.1875 C-3.3125 5.5275 -3.3125 4.8675 -3.3125 4.1875 C-3.9725 3.8575 -4.6325 3.5275 -5.3125 3.1875 C-3.62182838 0.96293208 -2.83198776 0.22962063 0 0 Z " fill="#D5CAC1" transform="translate(247.3125,324.8125)"/>
<path d="M0 0 C0.33 0.99 0.66 1.98 1 3 C0.43410156 3.48210937 -0.13179688 3.96421875 -0.71484375 4.4609375 C-1.44832031 5.09257812 -2.18179687 5.72421875 -2.9375 6.375 C-3.66839844 7.00148438 -4.39929688 7.62796875 -5.15234375 8.2734375 C-7.08380906 9.87747714 -7.08380906 9.87747714 -8 12 C-8.99 12.33 -9.98 12.66 -11 13 C-12.48182994 14.57033897 -12.48182994 14.57033897 -13.875 16.4375 C-16.31438661 19.41355166 -18.18269609 20.9895372 -22 22 C-20.47589059 18.24507123 -18.22731235 16.19214276 -15.1875 13.5625 C-12.36441889 11.09383167 -9.58541756 8.65490584 -7 5.9375 C-5 4 -5 4 -3 4 C-3 3.34 -3 2.68 -3 2 C-2.01 1.34 -1.02 0.68 0 0 Z " fill="#A6591F" transform="translate(272,300)"/>
<path d="M0 0 C5.80444725 5.1215711 9.89903716 11.93098044 13 19 C13 19.99 13 20.98 13 22 C11.68 22.33 10.36 22.66 9 23 C7.93453047 19.8035914 7.92572162 17.34252724 8 14 C7.34 14 6.68 14 6 14 C5.566875 13.071875 5.13375 12.14375 4.6875 11.1875 C3.2617267 8.06964073 3.2617267 8.06964073 1.3125 6.4375 C0 5 0 5 -0.1875 2.3125 C-0.125625 1.549375 -0.06375 0.78625 0 0 Z " fill="#C98957" transform="translate(396,224)"/>
<path d="M0 0 C1.65 0.33 3.3 0.66 5 1 C5.33 2.65 5.66 4.3 6 6 C6.99 6.33 7.98 6.66 9 7 C9 7.99 9 8.98 9 10 C9.66 10 10.32 10 11 10 C11 11.65 11 13.3 11 15 C6.50300394 11.34538072 2.37151606 7.74119446 -1 3 C-0.67 2.01 -0.34 1.02 0 0 Z " fill="#B16E3C" transform="translate(249,322)"/>
<path d="M0 0 C0.33 0.99 0.66 1.98 1 3 C1.99 3.33 2.98 3.66 4 4 C3.01 4.495 3.01 4.495 2 5 C1.34444881 7.52733235 1.34444881 7.52733235 1 10 C0.34 10 -0.32 10 -1 10 C-0.7525 10.5775 -0.505 11.155 -0.25 11.75 C-0.12625 12.86375 -0.12625 12.86375 0 14 C-2.30178819 16.81329667 -5.0515284 18.89394885 -8 21 C-8.33 20.01 -8.66 19.02 -9 18 C-8.34 18 -7.68 18 -7 18 C-6.62875 16.7625 -6.62875 16.7625 -6.25 15.5 C-5.04223322 12.11825302 -3.58447042 9.09081611 -1.90234375 5.9296875 C-0.98533248 3.96863309 -0.4551748 2.11163566 0 0 Z " fill="#CD8954" transform="translate(296,215)"/>
<path d="M0 0 C0.66 0.33 1.32 0.66 2 1 C2 2.32 2 3.64 2 5 C1.34 5 0.68 5 0 5 C0 5.66 0 6.32 0 7 C0.66 7 1.32 7 2 7 C2 7.66 2 8.32 2 9 C2.598125 9.0825 3.19625 9.165 3.8125 9.25 C6.62932273 10.21576779 7.47799132 11.48868567 9 14 C9 14.66 9 15.32 9 16 C9.66 16 10.32 16 11 16 C10.67 16.66 10.34 17.32 10 18 C7.31443303 15.68761356 4.65092065 13.35201832 2 11 C1.45730469 10.525625 0.91460937 10.05125 0.35546875 9.5625 C-1 8.3125 -1 8.3125 -3 6 C-3 4.68 -3 3.36 -3 2 C-2.01 2 -1.02 2 0 2 C0 1.34 0 0.68 0 0 Z " fill="#EFE1D6" transform="translate(286,304)"/>
<path d="M0 0 C0.99 0.33 1.98 0.66 3 1 C3.33 1.99 3.66 2.98 4 4 C4.66 4.33 5.32 4.66 6 5 C6 5.66 6 6.32 6 7 C6.99 6.67 7.98 6.34 9 6 C9 6.66 9 7.32 9 8 C9.99 8.33 10.98 8.66 12 9 C12.90837763 11.47739354 13 13.33579484 13 16 C1.01702335 5.95087549 1.01702335 5.95087549 -1 1 C-0.67 0.67 -0.34 0.34 0 0 Z " fill="#EDDCCD" transform="translate(340,163)"/>
<path d="M0 0 C0.671875 1.796875 0.671875 1.796875 1 4 C-0.109375 5.703125 -0.109375 5.703125 -1.75 7.25 C-2.54664063 8.03117187 -2.54664063 8.03117187 -3.359375 8.828125 C-5 10 -5 10 -8 10 C-8 10.66 -8 11.32 -8 12 C-14.4 15.07692308 -14.4 15.07692308 -17.4375 14.6875 C-17.953125 14.460625 -18.46875 14.23375 -19 14 C-17.35 13.67 -15.7 13.34 -14 13 C-14 12.34 -14 11.68 -14 11 C-12.4840625 10.2265625 -12.4840625 10.2265625 -10.9375 9.4375 C-6.58965984 6.97963934 -3.36751859 3.6438803 0 0 Z " fill="#CD9060" transform="translate(206,311)"/>
<path d="M0 0 C2.125 0.375 2.125 0.375 4 1 C3.34 1 2.68 1 2 1 C1.34 2.32 0.68 3.64 0 5 C-0.66 5 -1.32 5 -2 5 C-2.226875 5.639375 -2.45375 6.27875 -2.6875 6.9375 C-4.48565826 11.13320261 -6.73904021 15.03900556 -9 19 C-9.33 19 -9.66 19 -10 19 C-10 16.69 -10 14.38 -10 12 C-9.34 11.67 -8.68 11.34 -8 11 C-8 10.34 -8 9.68 -8 9 C-7.01 9 -6.02 9 -5 9 C-5 8.01 -5 7.02 -5 6 C-4.34 6 -3.68 6 -3 6 C-2.814375 5.071875 -2.814375 5.071875 -2.625 4.125 C-2 2 -2 2 0 0 Z " fill="#D29A6D" transform="translate(129,240)"/>
<path d="M0 0 C0 3 0 3 -2 6 C-1.34 6 -0.68 6 0 6 C-1 8 -1 8 -3.0625 8.75 C-7.20448003 10.51254469 -10.48273271 13.22458809 -14 16 C-14.66 15.67 -15.32 15.34 -16 15 C-14.625 13.5 -14.625 13.5 -13 12 C-12.34 12 -11.68 12 -11 12 C-10.63068359 11.12408203 -10.63068359 11.12408203 -10.25390625 10.23046875 C-8.80583817 7.65462178 -7.19766892 6.20349432 -4.9375 4.3125 C-4.22464844 3.71050781 -3.51179687 3.10851562 -2.77734375 2.48828125 C-1.89755859 1.75158203 -1.89755859 1.75158203 -1 1 C-0.67 0.67 -0.34 0.34 0 0 Z " fill="#D4A57A" transform="translate(182,141)"/>
<path d="M0 0 C2.80880927 1.40440463 3.18173044 3.41249907 4.203125 6.2578125 C5.89156419 12.06802972 6.90828422 18.05363319 8 24 C8.66 24 9.32 24 10 24 C10 25.65 10 27.3 10 29 C3.36671347 21.73497189 2.24531754 9.28900404 0 0 Z " fill="#C78F62" transform="translate(164,216)"/>
<path d="M0 0 C5.04974328 0.82205123 10.0457995 1.71557765 15 3 C14.67 3.66 14.34 4.32 14 5 C15.98 5.66 17.96 6.32 20 7 C20 7.66 20 8.32 20 9 C14.14340094 7.33846988 8.5409866 5.52958084 3 3 C3 2.34 3 1.68 3 1 C2.01 0.67 1.02 0.34 0 0 Z " fill="#CB9260" transform="translate(120,354)"/>
<path d="M0 0 C0.66 0.33 1.32 0.66 2 1 C1.41089844 1.49628906 0.82179687 1.99257812 0.21484375 2.50390625 C-2.07529194 4.57406321 -4.1250552 6.54420669 -6 9 C-6.21081851 12.89459074 -6.21081851 12.89459074 -5 16 C-6.32 16 -7.64 16 -9 16 C-9.43346688 12.91154848 -9.70091815 10.98020013 -9 8 C-6.64420294 5.22785402 -3.92990953 3.13703761 -1 1 C-0.67 0.67 -0.34 0.34 0 0 Z " fill="#A75E27" transform="translate(173,200)"/>
<path d="M0 0 C-3.26545761 1.88391785 -6.28111761 2.49287967 -10 3 C-10 3.99 -10 4.98 -10 6 C-13.63 5.67 -17.26 5.34 -21 5 C-14.85062801 0.90041867 -7.3133957 -0.48755971 0 0 Z " fill="#CE9569" transform="translate(241,113)"/>
<path d="M0 0 C1.12894876 0.93274109 2.25300876 1.87140122 3.375 2.8125 C4.00148438 3.33457031 4.62796875 3.85664063 5.2734375 4.39453125 C7 6 7 6 9 9 C8.01 9.495 8.01 9.495 7 10 C7 9.34 7 8.68 7 8 C6.34 8 5.68 8 5 8 C5 8.66 5 9.32 5 10 C4.01 10 3.02 10 2 10 C-0.4294516 6.3558226 -0.16179575 4.28758728 0 0 Z " fill="#BC723A" transform="translate(281,308)"/>
<path d="M0 0 C1 2 1 2 0.375 4.8125 C-1.18131396 8.42031873 -3.09336178 10.3993237 -6 13 C-6.99 12.67 -7.98 12.34 -9 12 C-6.03 8.04 -3.06 4.08 0 0 Z " fill="#D29362" transform="translate(100,219)"/>
<path d="M0 0 C0.33 3.63 0.66 7.26 1 11 C0.1646875 10.01 0.1646875 10.01 -0.6875 9 C-2.84062308 6.74507789 -2.84062308 6.74507789 -5.75 6.75 C-6.4925 6.8325 -7.235 6.915 -8 7 C-6.56389554 2.69168661 -4.72692072 0 0 0 Z " fill="#E4CFC0" transform="translate(164,211)"/>
<path d="M0 0 C0.66 0 1.32 0 2 0 C0.61219205 3.89006773 -1.2152227 6.96558708 -3.625 10.3125 C-4.25664062 11.19550781 -4.88828125 12.07851563 -5.5390625 12.98828125 C-6.02117187 13.65214844 -6.50328125 14.31601562 -7 15 C-8.0703125 13.171875 -8.0703125 13.171875 -9 11 C-7.875 8.25 -7.875 8.25 -6 6 C-4.68 6 -3.36 6 -2 6 C-2 5.01 -2 4.02 -2 3 C-1.34 3 -0.68 3 0 3 C0 2.01 0 1.02 0 0 Z " fill="#CE976B" transform="translate(402,325)"/>
<path d="M0 0 C2.97 0.495 2.97 0.495 6 1 C6 1.66 6 2.32 6 3 C6.66 3 7.32 3 8 3 C8 4.32 8 5.64 8 7 C8.99 7.33 9.98 7.66 11 8 C10.67 9.32 10.34 10.64 10 12 C9.38125 11.195625 8.7625 10.39125 8.125 9.5625 C6.25835959 6.96125481 6.25835959 6.96125481 4 6 C4 5.34 4 4.68 4 4 C3.34 4 2.68 4 2 4 C1.34 2.68 0.68 1.36 0 0 Z " fill="#CD976C" transform="translate(190,265)"/>
<path d="M0 0 C3.5835705 3.5835705 4.760878 9.23301685 5.19140625 14.21484375 C5.18814178 15.81116803 5.10388762 17.40705643 5 19 C4.67 18.34 4.34 17.68 4 17 C3.34 17 2.68 17 2 17 C0.84429296 13.53287889 0.67164707 10.4585044 0.4375 6.8125 C0.35371094 5.54019531 0.26992188 4.26789063 0.18359375 2.95703125 C0.12300781 1.98121094 0.06242187 1.00539062 0 0 Z " fill="#CA8C5D" transform="translate(409,246)"/>
<path d="M0 0 C1.32 0.66 2.64 1.32 4 2 C-2.67862176 5.01651083 -8.63927766 7.57534294 -16 8 C-15 6 -15 6 -12.875 4.875 C-9.47608911 3.84054886 -6.53359114 3.8614278 -3 4 C-3 3.34 -3 2.68 -3 2 C-2.01 2 -1.02 2 0 2 C0 1.34 0 0.68 0 0 Z " fill="#CE9567" transform="translate(362,359)"/>
<path d="M0 0 C1.65 0 3.3 0 5 0 C3.33333333 1.66666667 1.66666667 3.33333333 0 5 C-0.721875 5.763125 -1.44375 6.52625 -2.1875 7.3125 C-4 9 -4 9 -6 9 C-6 9.66 -6 10.32 -6 11 C-6.66 11 -7.32 11 -8 11 C-8 10.01 -8 9.02 -8 8 C-7.01 8 -6.02 8 -5 8 C-4.67 6.35 -4.34 4.7 -4 3 C-2.68 3 -1.36 3 0 3 C0 2.01 0 1.02 0 0 Z " fill="#CB9263" transform="translate(389,340)"/>
<path d="M0 0 C0.33 0.99 0.66 1.98 1 3 C-0.2065625 3.86625 -0.2065625 3.86625 -1.4375 4.75 C-4.15550967 6.66823659 -4.15550967 6.66823659 -4.375 9.03125 C-4.58125 9.6809375 -4.7875 10.330625 -5 11 C-7.06640625 12.046875 -7.06640625 12.046875 -9.5625 12.75 C-10.80193359 13.11351562 -10.80193359 13.11351562 -12.06640625 13.484375 C-13.02353516 13.73960937 -13.02353516 13.73960937 -14 14 C-9.33333333 9.33333333 -4.66666667 4.66666667 0 0 Z " fill="#D2986D" transform="translate(221,297)"/>
<path d="M0 0 C0.66 0 1.32 0 2 0 C0.68954637 3.93136089 -0.83208046 6.31206827 -4 9 C-4.99 9.33 -5.98 9.66 -7 10 C-6.67 10.66 -6.34 11.32 -6 12 C-7.65 12 -9.3 12 -11 12 C-9.38405168 9.95880212 -7.7143618 7.95927063 -6 6 C-5.34 6 -4.68 6 -4 6 C-4 5.34 -4 4.68 -4 4 C-3.34 4 -2.68 4 -2 4 C-2 3.34 -2 2.68 -2 2 C-1.34 2 -0.68 2 0 2 C0 1.34 0 0.68 0 0 Z " fill="#D39B6C" transform="translate(136,184)"/>
<path d="M0 0 C9.59453303 6.15034169 9.59453303 6.15034169 13 10 C10.36 9.67 7.72 9.34 5 9 C5 7.68 5 6.36 5 5 C3.68 4.67 2.36 4.34 1 4 C0.67 2.68 0.34 1.36 0 0 Z " fill="#D39A6C" transform="translate(298,125)"/>
<path d="M0 0 C4.95 0 9.9 0 15 0 C15 0.33 15 0.66 15 1 C9.77487721 2.46670113 5.4185766 3.22577402 0 3 C0 2.01 0 1.02 0 0 Z " fill="#CC9060" transform="translate(179,363)"/>
<path d="M0 0 C2.125 0 2.125 0 5 1 C7.25484692 3.49775783 9.14265083 6.19801963 11 9 C9.68 9 8.36 9 7 9 C7 8.01 7 7.02 7 6 C6.01 6 5.02 6 4 6 C3.67 4.68 3.34 3.36 3 2 C1.02 2.66 -0.96 3.32 -3 4 C-2.01 2.68 -1.02 1.36 0 0 Z " fill="#DABAA1" transform="translate(245,325)"/>
<path d="M0 0 C1.16161779 2.86578759 0.9946154 4.01630163 0.00390625 7.015625 C-0.70958984 8.61664063 -0.70958984 8.61664063 -1.4375 10.25 C-1.91058594 11.32765625 -2.38367188 12.4053125 -2.87109375 13.515625 C-3.24363281 14.33546875 -3.61617188 15.1553125 -4 16 C-4.33 16 -4.66 16 -5 16 C-5 14.35 -5 12.7 -5 11 C-4.34 11 -3.68 11 -3 11 C-2.87625 9.9275 -2.7525 8.855 -2.625 7.75 C-2.10356064 4.62136385 -1.59911746 2.66519576 0 0 Z " fill="#CF966B" transform="translate(412,303)"/>
<path d="M0 0 C-1.3094668 1.33631236 -2.62265485 2.66897925 -3.9375 4 C-4.66839844 4.7425 -5.39929688 5.485 -6.15234375 6.25 C-8 8 -8 8 -9 8 C-9.20086443 4.28400809 -9.1519437 3.22791555 -7 0 C-2.625 -1.3125 -2.625 -1.3125 0 0 Z " fill="#D3976A" transform="translate(316,260)"/>
<path d="M0 0 C0.66 0 1.32 0 2 0 C0.58832253 5.26170694 -1.74850232 8.72171358 -5 13 C-5.66 12.67 -6.32 12.34 -7 12 C-6.67 10.68 -6.34 9.36 -6 8 C-5.01 8 -4.02 8 -3 8 C-2.87625 7.4225 -2.7525 6.845 -2.625 6.25 C-1.99351176 3.97664233 -1.11141809 2.0746471 0 0 Z " fill="#CE976A" transform="translate(323,244)"/>
<path d="M0 0 C1.70884005 1.62339805 3.37446717 3.29319053 5 5 C5 5.66 5 6.32 5 7 C5.639375 7.268125 6.27875 7.53625 6.9375 7.8125 C9 9 9 9 10 12 C9.34 12 8.68 12 8 12 C8 11.34 8 10.68 8 10 C6.02 9.34 4.04 8.68 2 8 C2 6.68 2 5.36 2 4 C1.34 4 0.68 4 0 4 C0 2.68 0 1.36 0 0 Z " fill="#D39F76" transform="translate(210,231)"/>
<path d="M0 0 C0.99 0.33 1.98 0.66 3 1 C0.78310162 5.43379675 -1.77728219 7.46636932 -6 10 C-6.3125 7.6875 -6.3125 7.6875 -6 5 C-3.5625 3.3125 -3.5625 3.3125 -1 2 C-0.67 1.34 -0.34 0.68 0 0 Z " fill="#C98A57" transform="translate(145,224)"/>
<path d="M0 0 C0.99 0.495 0.99 0.495 2 1 C2 1.66 2 2.32 2 3 C2.66 3 3.32 3 4 3 C5.5078125 4.75 5.5078125 4.75 7.125 7 C7.66382813 7.7425 8.20265625 8.485 8.7578125 9.25 C9.16773438 9.8275 9.57765625 10.405 10 11 C5.71845927 10.16012421 3.82092597 8.35461466 1 5 C0.1875 2.1875 0.1875 2.1875 0 0 Z " fill="#CE976B" transform="translate(386,213)"/>
<path d="M0 0 C4.67248931 2.82522609 7.65996398 5.67760044 11 10 C8.69 9.67 6.38 9.34 4 9 C3.566875 7.88625 3.566875 7.88625 3.125 6.75 C2.17697356 4.43260203 1.15154089 2.22082885 0 0 Z " fill="#C58857" transform="translate(362,190)"/>
<path d="M0 0 C0.66 0.33 1.32 0.66 2 1 C-7.22551253 6.74031891 -7.22551253 6.74031891 -13 6 C-13.33 5.34 -13.66 4.68 -14 4 C-13.24074219 3.79503906 -12.48148437 3.59007812 -11.69921875 3.37890625 C-10.20841797 2.97478516 -10.20841797 2.97478516 -8.6875 2.5625 C-7.70136719 2.29566406 -6.71523438 2.02882813 -5.69921875 1.75390625 C-3.78482474 1.21920575 -1.88566385 0.62855462 0 0 Z " fill="#CE9366" transform="translate(348,327)"/>
<path d="M0 0 C0.33 0.99 0.66 1.98 1 3 C0.38125 3.2475 -0.2375 3.495 -0.875 3.75 C-3.35068687 5.20628639 -3.95125002 6.37812506 -5 9 C-6.32 8.67 -7.64 8.34 -9 8 C-6.03 5.36 -3.06 2.72 0 0 Z " fill="#D09465" transform="translate(249,271)"/>
<path d="M0 0 C1.37913361 3.83092668 0.78648334 7.0675833 0 11 C-0.99 12.485 -0.99 12.485 -2 14 C-2.66 14 -3.32 14 -4 14 C-3.00956295 9.16371695 -2.04301154 4.52381127 0 0 Z " fill="#CC9065" transform="translate(85,242)"/>
<path d="M0 0 C2.75 0.25 2.75 0.25 5 1 C3.35 2.98 1.7 4.96 0 7 C-0.33 6.34 -0.66 5.68 -1 5 C-1.99 4.67 -2.98 4.34 -4 4 C-2.3125 1.9375 -2.3125 1.9375 0 0 Z " fill="#CE864C" transform="translate(134,233)"/>
<path d="M0 0 C1.67542976 0.28604898 3.34385343 0.61781233 5 1 C6 4 6 4 5 7 C3.125 6.8125 3.125 6.8125 1 6 C-0.25 3.4375 -0.25 3.4375 -1 1 C-0.67 0.67 -0.34 0.34 0 0 Z " fill="#A65F2B" transform="translate(249,322)"/>
<path d="M0 0 C0.99 0.495 0.99 0.495 2 1 C2 1.66 2 2.32 2 3 C3.32 3.66 4.64 4.32 6 5 C6 5.66 6 6.32 6 7 C6.9590625 7.433125 6.9590625 7.433125 7.9375 7.875 C10 9 10 9 11 11 C8.125 10.8125 8.125 10.8125 5 10 C3.8125 7.625 3.8125 7.625 3 5 C2.01904252 3.98131338 1.02297922 2.97648017 0 2 C0 1.34 0 0.68 0 0 Z " fill="#D3A279" transform="translate(375,202)"/>
<path d="M0 0 C1.1725131 0.95117134 2.33787015 1.91117009 3.5 2.875 C4.47453125 3.67550781 4.47453125 3.67550781 5.46875 4.4921875 C5.9740625 4.98976562 6.479375 5.48734375 7 6 C7 6.66 7 7.32 7 8 C7.66 8 8.32 8 9 8 C8.67 8.66 8.34 9.32 8 10 C6 10 6 10 3.875 8.125 C2 6 2 6 2 4 C1.34 4 0.68 4 0 4 C0 2.68 0 1.36 0 0 Z " fill="#D1A275" transform="translate(313,137)"/>
<path d="M0 0 C3.39417765 3.12621626 5.6062718 5.56541027 7 10 C6.01 10.495 6.01 10.495 5 11 C0.07692308 5.70769231 0.07692308 5.70769231 -0.3125 2.125 C-0.209375 1.42375 -0.10625 0.7225 0 0 Z " fill="#D09D6E" transform="translate(396,224)"/>
<path d="M0 0 C0.33 0.99 0.66 1.98 1 3 C-0.9628843 6.1708131 -2.12536 7.74158364 -5.75 8.8125 C-6.4925 8.874375 -7.235 8.93625 -8 9 C-7.04270084 7.87411986 -6.08412105 6.7493285 -5.125 5.625 C-4.59132812 4.99851563 -4.05765625 4.37203125 -3.5078125 3.7265625 C-2.38567993 2.44163349 -1.20628025 1.20628025 0 0 Z " fill="#CD9368" transform="translate(165,157)"/>
<path d="M0 0 C-2.07019495 2.07019495 -3.93828837 3.16936137 -6.5 4.5625 C-7.2940625 4.99691406 -8.088125 5.43132812 -8.90625 5.87890625 C-10.26112369 6.60437034 -11.62537835 7.31268917 -13 8 C-13 6.68 -13 5.36 -13 4 C-11.68 4 -10.36 4 -9 4 C-9 3.34 -9 2.68 -9 2 C-5.86501708 0.14223235 -3.62528568 -0.20140476 0 0 Z " fill="#CD9767" transform="translate(232,153)"/>
<path d="M0 0 C5.05255964 0.63156995 9.29593201 2.13459373 14 4 C10.34811918 5.07174763 7.73567172 4.76411467 4 4 C4 3.34 4 2.68 4 2 C2.68 2 1.36 2 0 2 C0 1.34 0 0.68 0 0 Z " fill="#CE946B" transform="translate(273,115)"/>
<path d="M0 0 C1.99097846 2.98646769 2.94124926 5.59687262 4 9 C3.01 9 2.02 9 1 9 C1 8.01 1 7.02 1 6 C0.34 6 -0.32 6 -1 6 C-1 5.34 -1 4.68 -1 4 C-1.66 4 -2.32 4 -3 4 C-2.67 3.01 -2.34 2.02 -2 1 C-1.34 1.33 -0.68 1.66 0 2 C0 1.34 0 0.68 0 0 Z " fill="#CD9159" transform="translate(117,293)"/>
<path d="M0 0 C0.33 1.32 0.66 2.64 1 4 C-1.475 5.485 -1.475 5.485 -4 7 C-4.66 6.01 -5.32 5.02 -6 4 C-2.25 0 -2.25 0 0 0 Z " fill="#CF864D" transform="translate(217,276)"/>
<path d="M0 0 C0.66 1.98 1.32 3.96 2 6 C0.02 6.33 -1.96 6.66 -4 7 C-4.33 5.35 -4.66 3.7 -5 2 C-2 0 -2 0 0 0 Z " fill="#F4EFE8" transform="translate(165,223)"/>
<path d="M0 0 C0.99 0.33 1.98 0.66 3 1 C3.33 1.99 3.66 2.98 4 4 C4.66 4.33 5.32 4.66 6 5 C6 5.99 6 6.98 6 8 C6.66 8.33 7.32 8.66 8 9 C5 9 5 9 2.3125 6.75 C0 4 0 4 0 0 Z " fill="#EFD4C0" transform="translate(340,163)"/>
<path d="M0 0 C2.99324263 1.0975223 3.84610901 1.67682892 5.25 4.625 C5.4975 5.40875 5.745 6.1925 6 7 C6.66 7 7.32 7 8 7 C7.67 7.66 7.34 8.32 7 9 C5.82460004 8.07347299 4.65989423 7.13336613 3.5 6.1875 C2.52546875 5.40439453 2.52546875 5.40439453 1.53125 4.60546875 C0 3 0 3 0 0 Z " fill="#FBEADA" transform="translate(289,313)"/>
<path d="M0 0 C0.33 0.99 0.66 1.98 1 3 C0.071875 3.61875 0.071875 3.61875 -0.875 4.25 C-3.11362309 5.82631336 -3.11362309 5.82631336 -3.9375 8.125 C-5 10 -5 10 -7.625 10.75 C-8.40875 10.8325 -9.1925 10.915 -10 11 C-9.67 10.34 -9.34 9.68 -9 9 C-8.34 9 -7.68 9 -7 9 C-6.731875 8.401875 -6.46375 7.80375 -6.1875 7.1875 C-5.00082594 5.00152146 -3.90400887 3.58667406 -2 2 C-1.34 2 -0.68 2 0 2 C0 1.34 0 0.68 0 0 Z " fill="#DAAF87" transform="translate(270,250)"/>
<path d="M0 0 C0.33 0.66 0.66 1.32 1 2 C1.66 2.33 2.32 2.66 3 3 C1.576875 3.6496875 1.576875 3.6496875 0.125 4.3125 C-3.20041937 5.79302201 -3.20041937 5.79302201 -5 9 C-5.99 9 -6.98 9 -8 9 C-8 8.34 -8 7.68 -8 7 C-6.25 5.2734375 -6.25 5.2734375 -4 3.375 C-3.2575 2.74335938 -2.515 2.11171875 -1.75 1.4609375 C-1.1725 0.97882813 -0.595 0.49671875 0 0 Z " fill="#D19564" transform="translate(124,196)"/>
<path d="M0 0 C5.94 1.485 5.94 1.485 12 3 C12 3.66 12 4.32 12 5 C10.02 5 8.04 5 6 5 C6 4.34 6 3.68 6 3 C3.03 2.505 3.03 2.505 0 2 C0 1.34 0 0.68 0 0 Z " fill="#CD9164" transform="translate(308,328)"/>
<path d="M0 0 C0.66 0 1.32 0 2 0 C2 0.66 2 1.32 2 2 C3.32 2.66 4.64 3.32 6 4 C4.68799596 5.35432675 3.35368596 6.68733482 2 8 C1.67 8 1.34 8 1 8 C0.67 5.36 0.34 2.72 0 0 Z " fill="#C9834E" transform="translate(226,262)"/>
<path d="M0 0 C1.98 1.65 3.96 3.3 6 5 C3.10765685 5.82638376 1.11257569 6 -2 6 C-1.34 4.02 -0.68 2.04 0 0 Z " fill="#C07337" transform="translate(356,184)"/>
<path d="M0 0 C0 3 0 3 -2 6 C-1.34 6 -0.68 6 0 6 C-0.33 6.66 -0.66 7.32 -1 8 C-2.98 8 -4.96 8 -7 8 C-5.50902342 4.2047869 -3.24299151 2.38957269 0 0 Z " fill="#C98B5E" transform="translate(182,141)"/>
<path d="M0 0 C-1.43029572 2.86059144 -3.14447973 3.63713805 -6 5 C-8.8125 4.6875 -8.8125 4.6875 -11 4 C-9.71264403 1.42528807 -8.71510189 1.29583343 -6.0625 0.3125 C-5.35222656 0.04050781 -4.64195312 -0.23148437 -3.91015625 -0.51171875 C-2 -1 -2 -1 0 0 Z " fill="#CA9063" transform="translate(220,119)"/>
<path d="M0 0 C0.66 0.33 1.32 0.66 2 1 C1 4 1 4 -2.3125 5.75 C-6.97563098 7.33072237 -6.97563098 7.33072237 -10 6 C-8.35 5.67 -6.7 5.34 -5 5 C-5 4.34 -5 3.68 -5 3 C-2.625 1.3125 -2.625 1.3125 0 0 Z " fill="#D8A780" transform="translate(197,319)"/>
<path d="M0 0 C3 0 3 0 4.6875 1.5 C5.120625 1.995 5.55375 2.49 6 3 C6.33 2.34 6.66 1.68 7 1 C7 3.31 7 5.62 7 8 C5.8274869 7.04882866 4.66212985 6.08882991 3.5 5.125 C2.8503125 4.59132813 2.200625 4.05765625 1.53125 3.5078125 C1.0259375 3.01023437 0.520625 2.51265625 0 2 C0 1.34 0 0.68 0 0 Z " fill="#E4CFBB" transform="translate(276,301)"/>
<path d="M0 0 C2.125 0.375 2.125 0.375 4 1 C3.09972412 2.03531726 2.17906965 3.05294165 1.25 4.0625 C0.48429687 4.91521484 0.48429687 4.91521484 -0.296875 5.78515625 C-2 7 -2 7 -4.203125 6.68359375 C-4.79609375 6.45800781 -5.3890625 6.23242188 -6 6 C-4.68 5.67 -3.36 5.34 -2 5 C-2 4.01 -2 3.02 -2 2 C-1.34 1.34 -0.68 0.68 0 0 Z " fill="#CA8C5D" transform="translate(291,279)"/>
<path d="M0 0 C0.66 0 1.32 0 2 0 C1.55090939 1.48199902 1.09043436 2.96055236 0.625 4.4375 C0.36976563 5.26121094 0.11453125 6.08492187 -0.1484375 6.93359375 C-1 9 -1 9 -3 10 C-2.25 3.375 -2.25 3.375 0 0 Z " fill="#D29B6D" transform="translate(328,234)"/>
<path d="M0 0 C1.15224028 0.92961422 2.29659176 1.8690125 3.4375 2.8125 C4.07558594 3.33457031 4.71367187 3.85664063 5.37109375 4.39453125 C7 6 7 6 8 9 C7.34 9 6.68 9 6 9 C5.67 8.34 5.34 7.68 5 7 C3.7315625 6.319375 3.7315625 6.319375 2.4375 5.625 C1.633125 5.08875 0.82875 4.5525 0 4 C0 2.68 0 1.36 0 0 Z " fill="#C17F4C" transform="translate(348,175)"/>
<path d="M0 0 C0 1.32 0 2.64 0 4 C2.475 4.99 2.475 4.99 5 6 C4.67 6.66 4.34 7.32 4 8 C0.2047869 6.50902342 -1.61042731 4.24299151 -4 1 C-2 0 -2 0 0 0 Z " fill="#F9E9DB" transform="translate(336,156)"/>
<path d="M0 0 C6.625 0.75 6.625 0.75 10 3 C10 3.66 10 4.32 10 5 C8.51800098 4.55090939 7.03944764 4.09043436 5.5625 3.625 C4.73878906 3.36976563 3.91507812 3.11453125 3.06640625 2.8515625 C1 2 1 2 0 0 Z " fill="#C78E61" transform="translate(283,357)"/>
<path d="M0 0 C0.33 1.65 0.66 3.3 1 5 C1.66 5 2.32 5 3 5 C3 5.99 3 6.98 3 8 C2.34 8 1.68 8 1 8 C-0.2890625 6.46875 -0.2890625 6.46875 -1.625 4.5 C-2.29402344 3.52546875 -2.29402344 3.52546875 -2.9765625 2.53125 C-3.31429688 2.0259375 -3.65203125 1.520625 -4 1 C-2 0 -2 0 0 0 Z " fill="#BE773F" transform="translate(264,336)"/>
<path d="M0 0 C1.32 0.33 2.64 0.66 4 1 C4 1.66 4 2.32 4 3 C4.66 3 5.32 3 6 3 C6.33 4.98 6.66 6.96 7 9 C4.03595495 6.19195732 1.55500981 3.81684226 0 0 Z " fill="#CF966B" transform="translate(98,334)"/>
<path d="M0 0 C0.66 1.32 1.32 2.64 2 4 C1.01 4.495 1.01 4.495 0 5 C0 6.32 0 7.64 0 9 C-0.66 9 -1.32 9 -2 9 C-2 7.35 -2 5.7 -2 4 C-2.66 4 -3.32 4 -4 4 C-4 3.34 -4 2.68 -4 2 C-2.68 1.34 -1.36 0.68 0 0 Z " fill="#B66227" transform="translate(262,328)"/>
<path d="M0 0 C0.66 0.33 1.32 0.66 2 1 C1.67 1.66 1.34 2.32 1 3 C0.34 3 -0.32 3 -1 3 C-1 4.32 -1 5.64 -1 7 C-2.98 7.33 -4.96 7.66 -7 8 C-5.38405168 5.95880212 -3.7143618 3.95927063 -2 2 C-1.34 2 -0.68 2 0 2 C0 1.34 0 0.68 0 0 Z " fill="#D3A17B" transform="translate(229,289)"/>
<path d="M0 0 C0.99 0 1.98 0 3 0 C1.84414715 3.91211733 0.64465038 6.8745041 -2 10 C-2 7.69 -2 5.38 -2 3 C-1.34 2.67 -0.68 2.34 0 2 C0 1.34 0 0.68 0 0 Z " fill="#CF9360" transform="translate(121,249)"/>
<path d="M0 0 C0.66 0.33 1.32 0.66 2 1 C2.625 3.5625 2.625 3.5625 3 6 C1.35 6.66 -0.3 7.32 -2 8 C-2.20086443 4.28400809 -2.1519437 3.22791555 0 0 Z " fill="#CA7736" transform="translate(373,200)"/>
<path d="M0 0 C1.65 0 3.3 0 5 0 C4.649375 0.763125 4.29875 1.52625 3.9375 2.3125 C2.67639116 5.04759379 2.67639116 5.04759379 4 8 C3.01 8 2.02 8 1 8 C0.67 5.36 0.34 2.72 0 0 Z " fill="#BE7B47" transform="translate(272,295)"/>
<path d="M0 0 C0.99 0 1.98 0 3 0 C3 1.65 3 3.3 3 5 C0.69 5 -1.62 5 -4 5 C-2.1875 2.5 -2.1875 2.5 0 0 Z " fill="#DAB79C" transform="translate(161,211)"/>
<path d="M0 0 C0.66 0.33 1.32 0.66 2 1 C0.02 3.97 0.02 3.97 -2 7 C-3.32 6.67 -4.64 6.34 -6 6 C-4.02 4.02 -2.04 2.04 0 0 Z " fill="#D7A97B" transform="translate(151,170)"/>
<path d="M0 0 C5.94 1.485 5.94 1.485 12 3 C12 3.33 12 3.66 12 4 C3.42857143 4.28571429 3.42857143 4.28571429 0 2 C0 1.34 0 0.68 0 0 Z " fill="#D0986C" transform="translate(144,325)"/>
<path d="M0 0 C2.375 0.25 2.375 0.25 5 1 C6.3125 3.0625 6.3125 3.0625 7 5 C4.03 4.505 4.03 4.505 1 4 C0.67 2.68 0.34 1.36 0 0 Z " fill="#B26F39" transform="translate(274,303)"/>
<path d="M0 0 C1.125 3.75 1.125 3.75 0 6 C0.66 6.33 1.32 6.66 2 7 C1.34 8.32 0.68 9.64 0 11 C-0.66 7.7 -1.32 4.4 -2 1 C-1.34 0.67 -0.68 0.34 0 0 Z " fill="#CB8E62" transform="translate(83,300)"/>
<path d="M0 0 C0.33 1.32 0.66 2.64 1 4 C0.01 4.33 -0.98 4.66 -2 5 C-2.99 6.485 -2.99 6.485 -4 8 C-4.99 7.67 -5.98 7.34 -7 7 C-4.69 4.69 -2.38 2.38 0 0 Z " fill="#D09968" transform="translate(259,261)"/>
<path d="M0 0 C0.99 0.33 1.98 0.66 3 1 C2.3125 2.9375 2.3125 2.9375 1 5 C-1.625 5.75 -1.625 5.75 -4 6 C-2.68 4.02 -1.36 2.04 0 0 Z " fill="#C8824D" transform="translate(95,226)"/>
<path d="M0 0 C1.15224028 0.92961422 2.29659176 1.8690125 3.4375 2.8125 C4.07558594 3.33457031 4.71367187 3.85664063 5.37109375 4.39453125 C7 6 7 6 8 9 C7.34 9 6.68 9 6 9 C6 8.34 6 7.68 6 7 C5.195625 6.773125 4.39125 6.54625 3.5625 6.3125 C2.716875 5.879375 1.87125 5.44625 1 5 C0.1875 2.375 0.1875 2.375 0 0 Z " fill="#C8834F" transform="translate(337,163)"/>
<path d="M0 0 C0.66 0.33 1.32 0.66 2 1 C1.34 2.98 0.68 4.96 0 7 C-0.99 7 -1.98 7 -3 7 C-2.67 5.35 -2.34 3.7 -2 2 C-1.34 2 -0.68 2 0 2 C0 1.34 0 0.68 0 0 Z " fill="#C88A55" transform="translate(233,285)"/>
<path d="M0 0 C1.98 1.65 3.96 3.3 6 5 C2.98968256 5.93423645 2.13349732 6.04449911 -1 5 C-0.67 3.35 -0.34 1.7 0 0 Z " fill="#CC8F5D" transform="translate(227,250)"/>
<path d="M0 0 C2.475 0.99 2.475 0.99 5 2 C5 2.66 5 3.32 5 4 C6.32 4.66 7.64 5.32 9 6 C8.34 6.66 7.68 7.32 7 8 C5.5 6.625 5.5 6.625 4 5 C4 4.34 4 3.68 4 3 C2.68 2.34 1.36 1.68 0 1 C0 0.67 0 0.34 0 0 Z " fill="#CB9064" transform="translate(354,234)"/>
<path d="M0 0 C3.91211733 1.15585285 6.8745041 2.35534962 10 5 C9.01 5.33 8.02 5.66 7 6 C7 5.34 7 4.68 7 4 C5.824375 3.7834375 5.824375 3.7834375 4.625 3.5625 C2 3 2 3 0 2 C0 1.34 0 0.68 0 0 Z " fill="#D29A6D" transform="translate(287,120)"/>
<path d="M0 0 C0 2 0 2 -1.75 4.1875 C-2.4925 4.785625 -3.235 5.38375 -4 6 C-6.25 5.75 -6.25 5.75 -8 5 C-2.25 0 -2.25 0 0 0 Z " fill="#D6A683" transform="translate(362,319)"/>
<path d="M0 0 C0.99 0.33 1.98 0.66 3 1 C-0.465 3.97 -0.465 3.97 -4 7 C-4 5.68 -4 4.36 -4 3 C-2.68 2.67 -1.36 2.34 0 2 C0 1.34 0 0.68 0 0 Z " fill="#D6A478" transform="translate(224,270)"/>
<path d="M0 0 C1.37245106 2.74490212 0.93580311 4.12060581 0 7 C-2.0625 8.3125 -2.0625 8.3125 -4 9 C-2.94124926 5.59687262 -1.99097846 2.98646769 0 0 Z " fill="#D69F75" transform="translate(90,233)"/>
<path d="M0 0 C0.33 0.99 0.66 1.98 1 3 C1.99 3.33 2.98 3.66 4 4 C3.525625 4.45375 3.05125 4.9075 2.5625 5.375 C0.90972192 6.93258204 0.90972192 6.93258204 0 9 C-0.66 9 -1.32 9 -2 9 C-1.34 6.03 -0.68 3.06 0 0 Z " fill="#CF9363" transform="translate(296,215)"/>
<path d="M0 0 C0.33 0.99 0.66 1.98 1 3 C1.66 3 2.32 3 3 3 C3.33 4.65 3.66 6.3 4 8 C-0.875 3.25 -0.875 3.25 -2 1 C-1.34 0.67 -0.68 0.34 0 0 Z " fill="#F4DBC7" transform="translate(355,178)"/>
<path d="M0 0 C0.33 0.99 0.66 1.98 1 3 C1.66 3 2.32 3 3 3 C2.67 3.66 2.34 4.32 2 5 C0.68 4.34 -0.64 3.68 -2 3 C-1.34 2.01 -0.68 1.02 0 0 Z M0 5 C0.66 5.33 1.32 5.66 2 6 C0.68 6.99 -0.64 7.98 -2 9 C-1.34 7.68 -0.68 6.36 0 5 Z " fill="#D08146" transform="translate(185,138)"/>
<path d="M0 0 C0.66 0 1.32 0 2 0 C2 0.66 2 1.32 2 2 C2.99 2.33 3.98 2.66 5 3 C4.34 3.66 3.68 4.32 3 5 C0.875 4.625 0.875 4.625 -1 4 C-0.67 2.68 -0.34 1.36 0 0 Z " fill="#EEEAE7" transform="translate(155,219)"/>
</svg>
